<svg xmlns="http://www.w3.org/2000/svg" width="13px" height="9px" viewBox="0 0 13 9"><path fill="currentColor" fill-rule="evenodd" clip-rule="evenodd" d="M12,8V7.5V5.811L10.236,3H8V7h1v0.5V8H5V7.5V7h2V1H1v6h1v0.5V8H0V7V0h1h7v1v1h3v0.189l1.764,2.811H13V8H12z M3.5,6C4.329,6,5,6.672,5,7.5C5,8.328,4.329,9,3.5,9C2.672,9,2,8.328,2,7.5C2,6.672,2.672,6,3.5,6z M3.5,8C3.776,8,4,7.776,4,7.5C4,7.224,3.776,7,3.5,7C3.224,7,3,7.224,3,7.5C3,7.776,3.224,8,3.5,8z M10.5,6C11.328,6,12,6.672,12,7.5C12,8.328,11.328,9,10.5,9C9.672,9,9,8.328,9,7.5C9,6.672,9.672,6,10.5,6z M10.5,8C10.776,8,11,7.776,11,7.5C11,7.224,10.776,7,10.5,7C10.224,7,10,7.224,10,7.5C10,7.776,10.224,8,10.5,8z"/></svg>