<svg xmlns="http://www.w3.org/2000/svg" width="16px" height="15px" viewBox="0 0 16 15"><path fill="currentColor" d="M14.833,1.474C14.043,0.523,12.949,0,11.75,0c-1.686,0-2.753,1.068-3.352,1.965C8.243,2.197,8.111,2.431,8,2.65c-0.111-0.22-0.243-0.453-0.398-0.685C7.003,1.068,5.936,0,4.25,0C3.051,0,1.957,0.523,1.167,1.474C0.415,2.38,0,3.594,0,4.892c0,1.413,0.52,2.727,1.636,4.135c0.997,1.259,2.432,2.556,4.094,4.059c0.619,0.56,1.259,1.139,1.941,1.772l0.02,0.019C7.78,14.959,7.89,15,8,15s0.22-0.041,0.309-0.123l0.021-0.019c0.682-0.633,1.322-1.212,1.941-1.772c1.661-1.503,3.096-2.8,4.094-4.059C15.48,7.619,16,6.305,16,4.892C16,3.594,15.585,2.38,14.833,1.474z"/></svg>